<?xml version="1.0" encoding="UTF-8"?>
<svg width="106px" height="40px" viewBox="0 0 106 40" version="1.1" xmlns="http://www.w3.org/2000/svg" xmlns:xlink="http://www.w3.org/1999/xlink">
    <!-- Generator: Sketch 64 (93537) - https://sketch.com -->
    <title>logo_color@1x</title>
    <desc>Created with Sketch.</desc>
    <g id="Landing" stroke="none" stroke-width="1" fill="none" fill-rule="evenodd">
        <g id="valiu_desktop1" transform="translate(-40.000000, -41.000000)">
            <g id="bloque1" transform="translate(0.000000, 1.000000)">
                <g id="header">
                    <g id="logo_color" transform="translate(40.000000, 40.000000)">
                        <path d="M42.68,16.5293548 L49.1245161,34.3912903 C50.1103226,37.1209677 48.0870968,40.0016129 45.1845161,40.0016129 L45.0883871,40.0016129 C43.1593548,40.0016129 41.4806452,38.6841935 41.0206452,36.8112903 L36.4303226,21.2151613 L31.7496774,36.7932258 C31.2954839,38.6751613 29.6122581,40.0016129 27.6767742,40.0016129 C24.7806452,40.0016129 22.7580645,37.1319355 23.7322581,34.4041935 L30.1090323,16.55 C31.0574194,13.8919355 33.576129,12.1177419 36.3980645,12.1177419 C39.2129032,12.1177419 41.7251613,13.8816129 42.68,16.5293548 Z M56.867871,0.317483871 C59.1685161,0.317483871 61.0330323,2.18458065 61.0298106,4.48458065 L60.9898065,35.8445806 C60.9865806,38.1413548 59.124,40.0013548 56.827871,40.0013548 C54.5265806,40.0013548 52.6620645,38.1349032 52.6652861,35.8336129 L52.7059355,4.4736129 C52.7085161,2.17748387 54.5710968,0.317483871 56.867871,0.317483871 Z M71.0487742,-6.4516129e-05 C73.3616774,-6.4516129e-05 75.2365161,1.87477419 75.2365161,4.18767742 C75.2365161,6.50058065 73.3616774,8.37541935 71.0487742,8.37541935 C68.7365161,8.37541935 66.8616774,6.50058065 66.8616774,4.18767742 C66.8616774,1.87477419 68.7365161,-6.4516129e-05 71.0487742,-6.4516129e-05 Z M71.0487742,11.0609032 C73.3616774,11.0609032 75.2365161,12.9357419 75.2365161,15.2486452 L75.2365161,35.7815484 C75.2365161,38.0938065 73.3616774,39.9692903 71.0487742,39.9692903 C68.7365161,39.9692903 66.8616774,38.0938065 66.8616774,35.7815484 L66.8616774,15.2486452 C66.8616774,12.9357419 68.7365161,11.0609032 71.0487742,11.0609032 Z M99.5030968,11.513871 C101.846968,10.1912903 104.909548,11.4609677 105.63471,14.05 C105.85471,14.833871 105.808258,15.6945161 105.81471,16.5022581 C105.823742,17.6816129 105.825032,18.8609677 105.832774,20.0403226 C105.846968,22.2306452 105.976,24.4480645 105.883097,26.6377419 C105.91471,27.8706452 105.71729,29.1493548 105.416,30.3422581 C104.149548,35.3551613 99.9495484,39.1377419 94.8030968,39.766129 C89.6992258,40.3887097 84.5766452,37.9545161 82.1327742,33.3667742 C80.0779355,29.5087097 80.4779355,25.1667742 80.5018065,20.9629032 C80.5101935,19.5183871 80.5276129,18.073871 80.5340645,16.6293548 C80.5405161,15.2622581 80.5101935,13.8893548 81.3585806,12.7177419 C82.9456774,10.5274194 86.2708387,10.4074194 88.0095484,12.4803226 C88.9824516,13.6396774 89.0063226,15.0345161 89.0205161,16.4519355 C89.0514839,19.4809677 89.0430968,22.5106452 89.0889032,25.5396774 C89.1147097,27.2712903 89.2605161,29.3312903 90.8624516,30.3854839 C92.319871,31.3448387 94.6727742,31.2164516 95.9476129,30.0170968 C97.479871,28.5745161 97.2476129,26.2958065 97.2830968,24.3848387 C97.3282581,21.866129 97.3179355,19.3454839 97.3347097,16.8267742 C97.3405161,16.0635484 97.2876129,15.2570968 97.4114839,14.4996774 C97.6172903,13.2493548 98.4005161,12.1364516 99.5030968,11.513871 Z" id="Shape" fill="#22354C"></path>
                        <path d="M21.7002581,12.1174839 C24.5963871,12.1174839 26.6189677,14.9871613 25.6447742,17.7149032 L19.268,35.5690968 C18.3189677,38.2271613 15.8009032,40.0013548 12.9789677,40.0013548 L12.9783226,40.0013548 C10.164129,40.0013548 7.65251613,38.2368387 6.69703226,35.5897419 L0.252516129,17.7278065 C-0.732645161,14.9974839 1.28993548,12.1174839 4.19187097,12.1174839 L4.28864516,12.1174839 C6.21767742,12.1174839 7.8963871,13.4349032 8.3563871,15.3078065 L12.9467097,30.9039355 L17.628,15.325871 C18.0815484,13.4439355 19.7647742,12.1174839 21.7002581,12.1174839 Z" id="Path" fill="#4953CF"></path>
                    </g>
                </g>
            </g>
        </g>
    </g>
</svg>